<svg fill="none" height="16" viewBox="0 0 24 24" width="16" xmlns="http://www.w3.org/2000/svg"><g clip-rule="evenodd" fill="#fff" fill-rule="evenodd"><path d="m12 2c.5523 0 1 .44772 1 1v18c0 .5523-.4477 1-1 1s-1-.4477-1-1v-18c0-.55228.4477-1 1-1z"/><path d="m11.2929 2.29289c.3905-.39052 1.0237-.39052 1.4142 0l6 6c.3905.39053.3905 1.02369 0 1.41422-.3905.39049-1.0237.39049-1.4142 0l-5.2929-5.2929-5.29289 5.2929c-.39053.39049-1.02369.39049-1.41422 0-.39052-.39053-.39052-1.02369 0-1.41422z"/></g></svg>